{
	"asset":{
		"generator":"Khronos glTF Blender I/O v3.5.30",
		"version":"2.0"
	},
	"scene":0,
	"scenes":[
		{
			"name":"Scene",
			"nodes":[
				4
			]
		}
	],
	"nodes":[
		{
			"mesh":0,
			"name":"Object_11",
			"translation":[
				6.1848022596677765e-06,
				1.055741786956787,
				0.008894586935639381
			]
		},
		{
			"mesh":1,
			"name":"Object_5",
			"rotation":[
				-0.002210109494626522,
				0.6887975335121155,
				0.002139418851584196,
				0.7249472737312317
			],
			"translation":[
				-0.002410953165963292,
				2.5180625915527344,
				-0.058758072555065155
			]
		},
		{
			"mesh":2,
			"name":"Object_7",
			"rotation":[
				0.017963504418730736,
				-0.025502273812890053,
				0.003535694908350706,
				0.9995071887969971
			],
			"translation":[
				-0.004980164114385843,
				2.2715728282928467,
				-0.05932759493589401
			]
		},
		{
			"mesh":3,
			"name":"Object_9",
			"rotation":[
				-0.6943535208702087,
				-0.0029814685694873333,
				0.0026593466755002737,
				0.7196229696273804
			],
			"translation":[
				-0.000786465359851718,
				2.0358726978302,
				0.07759291678667068
			]
		},
		{
			"children":[
				0,
				1,
				2,
				3
			],
			"name":"root"
		}
	],
	"materials":[
		{
			"alphaCutoff":0.5,
			"alphaMode":"MASK",
			"doubleSided":true,
			"emissiveFactor":[
				1,
				1,
				1
			],
			"emissiveTexture":{
				"index":0
			},
			"name":"material_3.001",
			"pbrMetallicRoughness":{
				"baseColorTexture":{
					"index":1
				},
				"metallicFactor":0,
				"roughnessFactor":0.5
			}
		},
		{
			"doubleSided":true,
			"name":"material.001",
			"pbrMetallicRoughness":{
				"baseColorTexture":{
					"index":2
				},
				"metallicFactor":0,
				"roughnessFactor":0.5
			}
		},
		{
			"doubleSided":true,
			"name":"material_1.001",
			"pbrMetallicRoughness":{
				"baseColorTexture":{
					"index":3
				},
				"metallicFactor":0,
				"roughnessFactor":0.5
			}
		},
		{
			"doubleSided":true,
			"name":"material_2.001",
			"pbrMetallicRoughness":{
				"baseColorTexture":{
					"index":4
				},
				"metallicFactor":0,
				"roughnessFactor":0.5
			}
		}
	],
	"meshes":[
		{
			"name":"Object_3",
			"primitives":[
				{
					"attributes":{
						"POSITION":0,
						"TEXCOORD_0":1,
						"TEXCOORD_1":2,
						"TEXCOORD_2":3,
						"NORMAL":4
					},
					"indices":5,
					"material":0
				}
			]
		},
		{
			"name":"Object_0.001",
			"primitives":[
				{
					"attributes":{
						"POSITION":6,
						"TEXCOORD_0":7,
						"TEXCOORD_1":8,
						"NORMAL":9
					},
					"indices":10,
					"material":1
				}
			]
		},
		{
			"name":"Object_1",
			"primitives":[
				{
					"attributes":{
						"POSITION":11,
						"TEXCOORD_0":12,
						"TEXCOORD_1":13,
						"TEXCOORD_2":14,
						"NORMAL":15
					},
					"indices":16,
					"material":2
				}
			]
		},
		{
			"name":"Object_2",
			"primitives":[
				{
					"attributes":{
						"POSITION":17,
						"TEXCOORD_0":18,
						"TEXCOORD_1":19,
						"TEXCOORD_2":20,
						"NORMAL":21
					},
					"indices":22,
					"material":3
				}
			]
		}
	],
	"textures":[
		{
			"sampler":0,
			"source":0
		},
		{
			"sampler":0,
			"source":1
		},
		{
			"sampler":0,
			"source":2
		},
		{
			"sampler":0,
			"source":3
		},
		{
			"sampler":0,
			"source":4
		}
	],
	"images":[
		{
			"bufferView":6,
			"mimeType":"image/png",
			"name":"material_3_specularGlossiness"
		},
		{
			"bufferView":7,
			"mimeType":"image/png",
			"name":"material_3_diffuse"
		},
		{
			"bufferView":13,
			"mimeType":"image/png",
			"name":"material_diffuse"
		},
		{
			"bufferView":20,
			"mimeType":"image/png",
			"name":"material_1_diffuse"
		},
		{
			"bufferView":27,
			"mimeType":"image/png",
			"name":"material_2_diffuse"
		}
	],
	"accessors":[
		{
			"bufferView":0,
			"componentType":5126,
			"count":4879,
			"max":[
				1.105320930480957,
				1.2675108909606934,
				0.5413200259208679
			],
			"min":[
				-1.1053279638290405,
				-1.0382494926452637,
				-1.280135154724121
			],
			"type":"VEC3"
		},
		{
			"bufferView":1,
			"componentType":5126,
			"count":4879,
			"type":"VEC2"
		},
		{
			"bufferView":2,
			"componentType":5126,
			"count":4879,
			"type":"VEC2"
		},
		{
			"bufferView":3,
			"componentType":5126,
			"count":4879,
			"type":"VEC2"
		},
		{
			"bufferView":4,
			"componentType":5126,
			"count":4879,
			"type":"VEC3"
		},
		{
			"bufferView":5,
			"componentType":5123,
			"count":20460,
			"type":"SCALAR"
		},
		{
			"bufferView":8,
			"componentType":5126,
			"count":4571,
			"max":[
				0.20170922577381134,
				0.11127340793609619,
				0.20529456436634064
			],
			"min":[
				-0.20154815912246704,
				-0.11211298406124115,
				-0.20529456436634064
			],
			"type":"VEC3"
		},
		{
			"bufferView":9,
			"componentType":5126,
			"count":4571,
			"type":"VEC2"
		},
		{
			"bufferView":10,
			"componentType":5126,
			"count":4571,
			"type":"VEC2"
		},
		{
			"bufferView":11,
			"componentType":5126,
			"count":4571,
			"type":"VEC3"
		},
		{
			"bufferView":12,
			"componentType":5123,
			"count":27402,
			"type":"SCALAR"
		},
		{
			"bufferView":14,
			"componentType":5126,
			"count":332,
			"max":[
				0.09357038140296936,
				0.23361171782016754,
				0.09237794578075409
			],
			"min":[
				-0.09357038140296936,
				-0.23361171782016754,
				-0.09237793833017349
			],
			"type":"VEC3"
		},
		{
			"bufferView":15,
			"componentType":5126,
			"count":332,
			"type":"VEC2"
		},
		{
			"bufferView":16,
			"componentType":5126,
			"count":332,
			"type":"VEC2"
		},
		{
			"bufferView":17,
			"componentType":5126,
			"count":332,
			"type":"VEC2"
		},
		{
			"bufferView":18,
			"componentType":5126,
			"count":332,
			"type":"VEC3"
		},
		{
			"bufferView":19,
			"componentType":5123,
			"count":960,
			"type":"SCALAR"
		},
		{
			"bufferView":21,
			"componentType":5126,
			"count":4602,
			"max":[
				0.10762644559144974,
				0.14064086973667145,
				0.028283854946494102
			],
			"min":[
				-0.10789275914430618,
				-0.13570506870746613,
				-0.028283854946494102
			],
			"type":"VEC3"
		},
		{
			"bufferView":22,
			"componentType":5126,
			"count":4602,
			"type":"VEC2"
		},
		{
			"bufferView":23,
			"componentType":5126,
			"count":4602,
			"type":"VEC2"
		},
		{
			"bufferView":24,
			"componentType":5126,
			"count":4602,
			"type":"VEC2"
		},
		{
			"bufferView":25,
			"componentType":5126,
			"count":4602,
			"type":"VEC3"
		},
		{
			"bufferView":26,
			"componentType":5123,
			"count":26418,
			"type":"SCALAR"
		}
	],
	"bufferViews":[
		{
			"buffer":0,
			"byteLength":58548,
			"byteOffset":0,
			"target":34962
		},
		{
			"buffer":0,
			"byteLength":39032,
			"byteOffset":58548,
			"target":34962
		},
		{
			"buffer":0,
			"byteLength":39032,
			"byteOffset":97580,
			"target":34962
		},
		{
			"buffer":0,
			"byteLength":39032,
			"byteOffset":136612,
			"target":34962
		},
		{
			"buffer":0,
			"byteLength":58548,
			"byteOffset":175644,
			"target":34962
		},
		{
			"buffer":0,
			"byteLength":40920,
			"byteOffset":234192,
			"target":34963
		},
		{
			"buffer":0,
			"byteLength":110124,
			"byteOffset":275112
		},
		{
			"buffer":0,
			"byteLength":511442,
			"byteOffset":385236
		},
		{
			"buffer":0,
			"byteLength":54852,
			"byteOffset":896680,
			"target":34962
		},
		{
			"buffer":0,
			"byteLength":36568,
			"byteOffset":951532,
			"target":34962
		},
		{
			"buffer":0,
			"byteLength":36568,
			"byteOffset":988100,
			"target":34962
		},
		{
			"buffer":0,
			"byteLength":54852,
			"byteOffset":1024668,
			"target":34962
		},
		{
			"buffer":0,
			"byteLength":54804,
			"byteOffset":1079520,
			"target":34963
		},
		{
			"buffer":0,
			"byteLength":68,
			"byteOffset":1134324
		},
		{
			"buffer":0,
			"byteLength":3984,
			"byteOffset":1134392,
			"target":34962
		},
		{
			"buffer":0,
			"byteLength":2656,
			"byteOffset":1138376,
			"target":34962
		},
		{
			"buffer":0,
			"byteLength":2656,
			"byteOffset":1141032,
			"target":34962
		},
		{
			"buffer":0,
			"byteLength":2656,
			"byteOffset":1143688,
			"target":34962
		},
		{
			"buffer":0,
			"byteLength":3984,
			"byteOffset":1146344,
			"target":34962
		},
		{
			"buffer":0,
			"byteLength":1920,
			"byteOffset":1150328,
			"target":34963
		},
		{
			"buffer":0,
			"byteLength":45306,
			"byteOffset":1152248
		},
		{
			"buffer":0,
			"byteLength":55224,
			"byteOffset":1197556,
			"target":34962
		},
		{
			"buffer":0,
			"byteLength":36816,
			"byteOffset":1252780,
			"target":34962
		},
		{
			"buffer":0,
			"byteLength":36816,
			"byteOffset":1289596,
			"target":34962
		},
		{
			"buffer":0,
			"byteLength":36816,
			"byteOffset":1326412,
			"target":34962
		},
		{
			"buffer":0,
			"byteLength":55224,
			"byteOffset":1363228,
			"target":34962
		},
		{
			"buffer":0,
			"byteLength":52836,
			"byteOffset":1418452,
			"target":34963
		},
		{
			"buffer":0,
			"byteLength":73,
			"byteOffset":1471288
		}
	],
	"samplers":[
		{
			"magFilter":9729,
			"minFilter":9987
		}
	],
	"buffers":[
		{
			"byteLength":1471364,
			"uri":"data:application/octet-stream;base64,"
		}
	]
}
